<?xml version="1.0" encoding="utf-8"?>
<!-- Generator: Adobe Illustrator 21.0.2, SVG Export Plug-In . SVG Version: 6.00 Build 0)  -->
<svg version="1.1" id="Layer_1" xmlns="http://www.w3.org/2000/svg" xmlns:xlink="http://www.w3.org/1999/xlink" x="0px" y="0px"
	 viewBox="0 0 77.3 15.7" style="enable-background:new 0 0 77.3 15.7;" xml:space="preserve">
<style type="text/css">
	.st0{fill:#FFFFFF;}
</style>
<title>logo-w</title>
<g>
	<path class="st0" d="M7.5,10.4c0,1-0.4,1.9-1.1,2.5c-0.8,0.6-1.8,0.9-3.1,0.9C2,13.8,1,13.6,0,13.1v-2.3c0.8,0.3,1.4,0.6,2,0.7
		c0.5,0.1,1,0.2,1.5,0.2c0.5,0,0.9-0.1,1.2-0.3c0.3-0.2,0.4-0.5,0.4-0.9c0-0.2-0.1-0.4-0.2-0.6S4.6,9.6,4.4,9.4
		C4.1,9.3,3.6,9,2.9,8.6C2.2,8.3,1.7,8,1.3,7.7C0.9,7.4,0.7,7,0.5,6.6C0.2,6.2,0.1,5.7,0.1,5.2c0-1,0.3-1.8,1-2.4
		c0.7-0.6,1.7-0.9,2.9-0.9c0.6,0,1.2,0.1,1.7,0.2s1.1,0.3,1.7,0.6L6.7,4.6C6.1,4.4,5.6,4.2,5.2,4.1C4.8,4,4.4,3.9,4,3.9
		c-0.5,0-0.8,0.1-1.1,0.3C2.7,4.5,2.5,4.8,2.5,5.1c0,0.2,0.1,0.4,0.2,0.6S2.9,6,3.2,6.2C3.4,6.3,3.9,6.6,4.7,7
		c1.1,0.5,1.8,1,2.2,1.6C7.3,9,7.5,9.7,7.5,10.4z"/>
	<path class="st0" d="M14.9,13.6l-0.3-1.1h-0.1c-0.3,0.4-0.6,0.7-1.1,1c-0.5,0.2-1,0.3-1.6,0.3c-1,0-1.8-0.3-2.3-0.8
		c-0.5-0.6-0.8-1.4-0.8-2.4V4.8H11V10c0,0.6,0.1,1.1,0.3,1.4c0.2,0.3,0.6,0.5,1.1,0.5c0.7,0,1.2-0.2,1.5-0.7
		c0.3-0.5,0.5-1.2,0.5-2.2V4.8h2.4v8.8H14.9z"/>
	<path class="st0" d="M26.4,13.6H24V8.5c0-0.6-0.1-1.1-0.3-1.4c-0.2-0.3-0.5-0.5-1-0.5c-0.6,0-1.1,0.2-1.3,0.7
		c-0.3,0.5-0.4,1.2-0.4,2.2v4.2h-2.4V4.8h1.8l0.3,1.1h0.1c0.2-0.4,0.6-0.7,1-1c0.4-0.2,1-0.3,1.5-0.3c1.3,0,2.2,0.4,2.7,1.3h0.2
		c0.2-0.4,0.6-0.7,1-1c0.5-0.2,1-0.3,1.6-0.3c1,0,1.8,0.3,2.3,0.8c0.5,0.5,0.8,1.3,0.8,2.5v5.8h-2.4V8.5c0-0.6-0.1-1.1-0.3-1.4
		c-0.2-0.3-0.5-0.5-1-0.5c-0.6,0-1,0.2-1.3,0.6c-0.3,0.4-0.4,1.1-0.4,2V13.6z"/>
	<path class="st0" d="M38.2,13.6h-2.5V4.1h-3.1v-2h8.7v2h-3.1V13.6z"/>
	<path class="st0" d="M48.3,11c0,0.9-0.3,1.6-0.9,2.1c-0.6,0.5-1.6,0.7-2.8,0.7c-0.6,0-1.2,0-1.6-0.1c-0.5-0.1-0.9-0.2-1.3-0.4v-2
		c0.4,0.2,1,0.4,1.5,0.5c0.6,0.1,1.1,0.2,1.5,0.2c0.9,0,1.3-0.3,1.3-0.8c0-0.2-0.1-0.3-0.2-0.5c-0.1-0.1-0.3-0.3-0.6-0.4
		c-0.3-0.2-0.7-0.3-1.1-0.5c-0.7-0.3-1.2-0.5-1.5-0.8c-0.3-0.2-0.6-0.5-0.7-0.8c-0.1-0.3-0.2-0.7-0.2-1.2c0-0.8,0.3-1.4,0.9-1.8
		c0.6-0.4,1.5-0.6,2.6-0.6c1.1,0,2.1,0.2,3.1,0.7l-0.7,1.7c-0.4-0.2-0.9-0.3-1.2-0.5c-0.4-0.1-0.8-0.2-1.2-0.2C44.3,6.4,44,6.6,44,7
		c0,0.2,0.1,0.4,0.3,0.6c0.2,0.2,0.7,0.4,1.5,0.7C46.5,8.5,47,8.8,47.3,9c0.3,0.2,0.6,0.5,0.7,0.8C48.2,10.2,48.3,10.6,48.3,11z"/>
	<path class="st0" d="M55,13.6l-0.5-1.2h-0.1c-0.4,0.5-0.8,0.9-1.3,1.1c-0.4,0.2-1,0.3-1.7,0.3c-0.8,0-1.5-0.2-2-0.7
		c-0.5-0.5-0.7-1.2-0.7-2.1c0-0.9,0.3-1.6,1-2.1c0.7-0.4,1.6-0.7,3-0.7l1.5,0V7.7c0-0.9-0.5-1.3-1.4-1.3c-0.7,0-1.5,0.2-2.5,0.6
		l-0.8-1.6c1-0.5,2.1-0.8,3.4-0.8c1.2,0,2.1,0.3,2.7,0.8c0.6,0.5,0.9,1.3,0.9,2.4v5.9H55z M54.3,9.5l-0.9,0c-0.7,0-1.2,0.1-1.6,0.4
		c-0.3,0.2-0.5,0.6-0.5,1.1c0,0.7,0.4,1,1.2,1c0.6,0,1-0.2,1.3-0.5c0.3-0.3,0.5-0.7,0.5-1.3V9.5z"/>
	<path class="st0" d="M66.5,13.6h-2.4V8.5c0-0.6-0.1-1.1-0.3-1.4c-0.2-0.3-0.6-0.5-1.1-0.5c-0.7,0-1.2,0.2-1.5,0.7
		c-0.3,0.5-0.5,1.2-0.5,2.2v4.2h-2.4V4.8h1.8l0.3,1.1h0.1c0.3-0.4,0.6-0.7,1.1-1c0.5-0.2,1-0.3,1.6-0.3c1,0,1.8,0.3,2.3,0.8
		c0.5,0.6,0.8,1.4,0.8,2.4V13.6z"/>
	<path class="st0" d="M72.7,7.1h4.6v6c-0.7,0.2-1.4,0.4-2.1,0.5c-0.7,0.1-1.3,0.1-2,0.1c-1.7,0-3.1-0.5-4-1.5
		c-0.9-1-1.4-2.5-1.4-4.4c0-1.9,0.5-3.3,1.6-4.4c1.1-1,2.5-1.6,4.4-1.6c1.2,0,2.3,0.2,3.4,0.7l-0.8,2c-0.8-0.4-1.7-0.6-2.6-0.6
		c-1.1,0-1.9,0.4-2.5,1.1c-0.6,0.7-1,1.7-1,2.9c0,1.3,0.3,2.2,0.8,2.9c0.5,0.7,1.3,1,2.2,1c0.5,0,1-0.1,1.6-0.2V9.2h-2.2V7.1z"/>
</g>
</svg>
