<?xml version="1.0" encoding="utf-8"?>
<!-- Generator: Adobe Illustrator 21.0.2, SVG Export Plug-In . SVG Version: 6.00 Build 0)  -->
<svg version="1.1" id="Layer_1" xmlns="http://www.w3.org/2000/svg" xmlns:xlink="http://www.w3.org/1999/xlink" x="0px" y="0px"
	 viewBox="0 0 10 20" style="enable-background:new 0 0 10 20;" xml:space="preserve">
<style type="text/css">
	.st0{fill:#00B3BE;}
</style>
<title>to-top</title>
<path class="st0" d="M9.7,4.3L5.4,0.1C5.3,0,5.2,0,5,0C4.8,0,4.6,0.1,4.4,0.3L0.2,4.4C0,4.6,0,4.8,0,5c0,0.5,0.4,0.8,0.9,0.8H1
	l0.1-0.1l0.1-0.1c0.1,0,0.1-0.1,0.2-0.2l2.8-2.8v16.6c0,0.4,0.4,0.7,0.7,0.7c0.4,0,0.8-0.3,0.8-0.7V2.6l3,2.9
	c0.2,0.2,0.4,0.2,0.5,0.2C9.6,5.7,10,5.4,10,5C10,4.8,9.9,4.6,9.7,4.3z"/>
</svg>
